<?xml version="1.0" encoding="UTF-8" standalone="no"?>
<!DOCTYPE svg PUBLIC "-//W3C//DTD SVG 1.1//EN" "http://www.w3.org/Graphics/SVG/1.1/DTD/svg11.dtd">
<svg width="100%" height="100%" viewBox="0 0 1729 738" version="1.1" xmlns="http://www.w3.org/2000/svg" xmlns:xlink="http://www.w3.org/1999/xlink" xml:space="preserve" xmlns:serif="http://www.serif.com/" style="fill-rule:evenodd;clip-rule:evenodd;stroke-linecap:round;stroke-linejoin:round;stroke-miterlimit:1.5;">
    <g transform="matrix(1,0,0,1,-191.593,-565.158)">
        <g id="homepage" transform="matrix(0.906166,0,0,0.906166,-77.8605,386.232)">
            <g transform="matrix(1,0,0,1,-85.6444,-376.606)">
                <g transform="matrix(1,0,0,1,64.1295,475.381)">
                    <path d="M1029.99,260.929L767.606,388.822L545.719,260.929L1029.99,260.929Z" style="fill:url(#_Linear1);stroke:black;stroke-width:4.5px;"/>
                </g>
                <path d="M610.467,1183.55L720.533,1120.95L443.405,960" style="fill:none;stroke:black;stroke-width:4.5px;"/>
                <g transform="matrix(1,0,0,1,55.5923,352.31)">
                    <g>
                        <path d="M775.959,640L775.959,512L554.256,384L554.256,512L775.959,640Z" style="fill:white;stroke:black;stroke-width:4.5px;"/>
                        <path d="M1274.79,352L775.959,640L775.959,512L831.384,480L859.097,432L1163.94,256L1219.36,256L1274.79,224" style="fill:white;stroke:black;stroke-width:4.5px;"/>
                    </g>
                    <g transform="matrix(1,0,0,1,9.2376,5.33333)">
                        <path d="M572.731,522.667L572.731,480L591.207,490.667L591.207,533.333" style="fill:none;stroke:black;stroke-width:4.5px;"/>
                    </g>
                    <g>
                        <path d="M665.108,512L609.682,544L609.682,608L720.533,672L775.959,640L775.959,576L665.108,512Z" style="fill:white;stroke:black;stroke-width:4.5px;"/>
                        <path d="M720.533,608L775.959,576L720.533,608Z" style="fill:white;stroke:black;stroke-width:4.5px;"/>
                        <path d="M609.682,544L720.533,608L720.533,672" style="fill:white;stroke:black;stroke-width:4.5px;"/>
                    </g>
                    <g>
                        <path d="M600.444,549.333L600.444,602.667" style="fill:none;stroke:black;stroke-width:4.5px;"/>
                        <path d="M600.444,592L591.207,597.333" style="fill:none;stroke:black;stroke-width:4.5px;"/>
                        <g transform="matrix(1,0,0,1,6.82121e-13,5.33333)">
                            <path d="M600.444,570.667L591.207,576" style="fill:none;stroke:black;stroke-width:4.5px;"/>
                        </g>
                        <g transform="matrix(1,0,0,1,0,10.6667)">
                            <path d="M600.444,549.333L591.207,554.667" style="fill:none;stroke:black;stroke-width:4.5px;"/>
                        </g>
                    </g>
                    <g>
                        <path d="M498.831,544L471.118,528L471.118,506.667L508.068,485.333L554.256,512L498.831,544Z" style="fill:white;stroke:black;stroke-width:4.5px;"/>
                        <path d="M498.831,544L498.831,522.667L554.256,490.667" style="fill:none;stroke:black;stroke-width:4.5px;"/>
                        <path d="M554.256,490.667L508.068,464L471.118,485.333L471.118,506.667L498.831,522.667" style="fill:none;stroke:black;stroke-width:4.5px;"/>
                        <g transform="matrix(1,0,0,1,1.70197e-13,128)">
                            <path d="M508.068,357.333L508.068,336" style="fill:none;stroke:black;stroke-width:4px;"/>
                        </g>
                    </g>
                </g>
                <path d="M831.736,992.203L886.81,1024L997.661,1024L1108.51,960L1330.21,832L1330.57,704.203L831.736,992.203Z" style="fill:url(#_Linear2);stroke:black;stroke-width:4.5px;"/>
                <g transform="matrix(1,0,0,1,0.78512,443.574)">
                    <g transform="matrix(0.759805,0.438674,-0.877347,0.506537,876.395,80.3653)">
                        <g opacity="0.2">
                            <g transform="matrix(1,0,0,1,-17.1487,-12.9632)">
                                <circle cx="515.979" cy="651.432" r="54.099" style="fill:none;stroke:black;stroke-width:17.82px;"/>
                                <circle cx="515.979" cy="651.432" r="54.099"/>
                            </g>
                            <path d="M498.831,736L498.831,672" style="fill:none;stroke:black;stroke-width:17.82px;"/>
                        </g>
                    </g>
                    <g transform="matrix(1.0807,0.623943,-1.24789,0.720467,878.541,-233.302)">
                        <g opacity="0.2">
                            <g transform="matrix(1,0,0,1,-17.1487,-12.9632)">
                                <circle cx="515.979" cy="651.432" r="54.099" style="fill:none;stroke:black;stroke-width:12.53px;"/>
                                <circle cx="515.979" cy="651.432" r="54.099"/>
                            </g>
                            <path d="M498.831,736L498.831,672" style="fill:none;stroke:black;stroke-width:12.53px;"/>
                        </g>
                    </g>
                    <g transform="matrix(0.54035,0.311972,-0.623943,0.360234,611.436,142.749)">
                        <g opacity="0.197549">
                            <g transform="matrix(1,0,0,1,-17.1487,-12.9632)">
                                <circle cx="515.979" cy="651.432" r="54.099" style="fill:none;stroke:black;stroke-width:25.05px;"/>
                                <circle cx="515.979" cy="651.432" r="54.099"/>
                            </g>
                            <path d="M498.831,736L498.831,672" style="fill:none;stroke:black;stroke-width:25.05px;"/>
                        </g>
                    </g>
                    <g transform="matrix(0.877347,0,0,0.877347,172.034,26.2725)">
                        <g transform="matrix(1,0,0,1,-17.1487,-12.9632)">
                            <circle cx="515.979" cy="651.432" r="54.099" style="fill:none;stroke:black;stroke-width:13.68px;"/>
                            <circle cx="515.979" cy="651.432" r="54.099" style="fill:rgb(0,207,156);"/>
                        </g>
                        <path d="M498.831,736L498.831,672" style="fill:none;stroke:black;stroke-width:13.68px;"/>
                    </g>
                    <g transform="matrix(0.623943,0,0,0.623943,110.728,100.984)">
                        <g transform="matrix(1,0,0,1,-17.1487,-12.9632)">
                            <circle cx="515.979" cy="651.432" r="54.099" style="fill:none;stroke:black;stroke-width:19.23px;"/>
                            <circle cx="515.979" cy="651.432" r="54.099" style="fill:rgb(0,207,156);"/>
                        </g>
                        <path d="M498.831,736L498.831,672" style="fill:none;stroke:black;stroke-width:19.23px;"/>
                    </g>
                    <g transform="matrix(1.24789,0,0,1.24789,-123.653,-310.444)">
                        <g transform="matrix(1,0,0,1,-17.1487,-12.9632)">
                            <circle cx="515.979" cy="651.432" r="54.099" style="fill:none;stroke:black;stroke-width:9.62px;"/>
                            <circle cx="515.979" cy="651.432" r="54.099" style="fill:rgb(0,207,156);"/>
                        </g>
                        <path d="M498.831,736L498.831,672" style="fill:none;stroke:black;stroke-width:9.62px;"/>
                    </g>
                </g>
            </g>
            <g transform="matrix(0.513735,0,0,0.513735,966.436,10.3821)">
                <g>
                    <g>
                        <g transform="matrix(1.70837,0.986328,-1.31034e-16,2.27783,-958.1,-1985.47)">
                            <text x="942.236px" y="736px" style="font-family:'Barlow-SemiBold', 'Barlow';font-weight:600;font-size:71.148px;fill:none;stroke:black;stroke-width:6.18px;stroke-linecap:butt;stroke-miterlimit:1.41421;">BOO<tspan x="1073.79px 1112.49px 1155.04px 1201.14px 1250.94px " y="736px 736px 736px 736px 736px ">TCAMP</tspan> 6</text>
                            <text x="1345.14px" y="712.308px" style="font-family:'Barlow-SemiBold', 'Barlow';font-weight:600;font-size:41.479px;fill:none;stroke:black;stroke-width:6.18px;stroke-linecap:butt;stroke-miterlimit:1.41421;">TH</text>
                            <text x="1409.81px" y="736px" style="font-family:'Barlow-SemiBold', 'Barlow';font-weight:600;font-size:71.148px;fill:none;stroke:black;stroke-width:6.18px;stroke-linecap:butt;stroke-miterlimit:1.41421;">EDITION</text>
                            <text x="942.236px" y="736px" style="font-family:'Barlow-SemiBold', 'Barlow';font-weight:600;font-size:71.148px;">BOO<tspan x="1073.79px 1112.49px 1155.04px 1201.14px 1250.94px " y="736px 736px 736px 736px 736px ">TCAMP</tspan> 6</text>
                            <text x="1345.14px" y="712.308px" style="font-family:'Barlow-SemiBold', 'Barlow';font-weight:600;font-size:41.479px;">TH</text>
                            <text x="1409.81px" y="736px" style="font-family:'Barlow-SemiBold', 'Barlow';font-weight:600;font-size:71.148px;">EDITION</text>
                        </g>
                        <g transform="matrix(1.70837,0.986328,-1.31034e-16,2.27783,-970.925,-1978.06)">
                            <text x="942.236px" y="736px" style="font-family:'Barlow-SemiBold', 'Barlow';font-weight:600;font-size:71.148px;fill:none;stroke:black;stroke-width:6.18px;stroke-linecap:butt;stroke-miterlimit:1.41421;">BOO<tspan x="1073.79px 1112.49px 1155.04px 1201.14px 1250.94px " y="736px 736px 736px 736px 736px ">TCAMP</tspan> 6</text>
                            <text x="1345.14px" y="712.308px" style="font-family:'Barlow-SemiBold', 'Barlow';font-weight:600;font-size:41.479px;fill:none;stroke:black;stroke-width:6.18px;stroke-linecap:butt;stroke-miterlimit:1.41421;">TH</text>
                            <text x="1409.81px" y="736px" style="font-family:'Barlow-SemiBold', 'Barlow';font-weight:600;font-size:71.148px;fill:none;stroke:black;stroke-width:6.18px;stroke-linecap:butt;stroke-miterlimit:1.41421;">EDITION</text>
                            <text x="942.236px" y="736px" style="font-family:'Barlow-SemiBold', 'Barlow';font-weight:600;font-size:71.148px;fill:white;">BOO<tspan x="1073.79px 1112.49px 1155.04px 1201.14px 1250.94px " y="736px 736px 736px 736px 736px ">TCAMP</tspan> 6</text>
                            <text x="1345.14px" y="712.308px" style="font-family:'Barlow-SemiBold', 'Barlow';font-weight:600;font-size:41.479px;fill:white;">TH</text>
                            <text x="1409.81px" y="736px" style="font-family:'Barlow-SemiBold', 'Barlow';font-weight:600;font-size:71.148px;fill:white;">EDITION</text>
                        </g>
                        <g id="_-10.10.2018---12.10.2018-" serif:id="(10.10.2018 - 12.10.2018)" transform="matrix(0.833892,0.481448,6.10703e-17,1.11186,-134.99,-556.138)">
                            <text x="942.236px" y="736px" style="font-family:'Barlow-Regular', 'Barlow';font-size:71.148px;fill:none;stroke:black;stroke-width:7.6px;stroke-linecap:butt;stroke-miterlimit:1.41421;">10.10.20<tspan x="1186.91px " y="736px ">1</tspan>8 - 12.10.20<tspan x="1547.42px " y="736px ">1</tspan>8</text>
                            <text x="942.236px" y="736px" style="font-family:'Barlow-Regular', 'Barlow';font-size:71.148px;">10.10.20<tspan x="1186.91px " y="736px ">1</tspan>8 - 12.10.20<tspan x="1547.42px " y="736px ">1</tspan>8</text>
                        </g>
                        <g id="_-10.10.2018---12.10.2018-1" serif:id="(10.10.2018 - 12.10.2018)" transform="matrix(0.833892,0.481448,6.10703e-17,1.11186,-141.291,-552.5)">
                            <text x="942.236px" y="736px" style="font-family:'Barlow-Regular', 'Barlow';font-size:71.148px;fill:none;stroke:black;stroke-width:7.6px;stroke-linecap:butt;stroke-miterlimit:1.41421;">10.10.20<tspan x="1186.91px " y="736px ">1</tspan>8 - 12.10.20<tspan x="1547.42px " y="736px ">1</tspan>8</text>
                            <text x="942.236px" y="736px" style="font-family:'Barlow-Regular', 'Barlow';font-size:71.148px;fill:white;">10.10.20<tspan x="1186.91px " y="736px ">1</tspan>8 - 12.10.20<tspan x="1547.42px " y="736px ">1</tspan>8</text>
                        </g>
                    </g>
                </g>
            </g>
            <g transform="matrix(1.96044,0,0,1.96044,-928.253,-1175.9)">
                <path d="M1108.51,832L1598.11,1114.67" style="fill:none;stroke:black;stroke-width:2.25px;"/>
            </g>
        </g>
    </g>
    <defs>
        <linearGradient id="_Linear1" x1="0" y1="0" x2="1" y2="0" gradientUnits="userSpaceOnUse" gradientTransform="matrix(39.5306,-172.318,172.318,39.5306,1215.08,471.971)"><stop offset="0" style="stop-color:rgb(255,50,117);stop-opacity:1"/><stop offset="1" style="stop-color:rgb(109,38,255);stop-opacity:1"/></linearGradient>
        <linearGradient id="_Linear2" x1="0" y1="0" x2="1" y2="0" gradientUnits="userSpaceOnUse" gradientTransform="matrix(2.32922e-13,245.333,-245.333,2.32922e-13,1126.99,885.333)"><stop offset="0" style="stop-color:rgb(0,207,156);stop-opacity:1"/><stop offset="1" style="stop-color:rgb(109,38,255);stop-opacity:1"/></linearGradient>
    </defs>
</svg>
