<?xml version="1.0" encoding="UTF-8" standalone="no"?>
<!DOCTYPE svg PUBLIC "-//W3C//DTD SVG 1.1//EN" "http://www.w3.org/Graphics/SVG/1.1/DTD/svg11.dtd">
<svg width="100%" height="100%" viewBox="0 0 781 618" version="1.1" xmlns="http://www.w3.org/2000/svg" xmlns:xlink="http://www.w3.org/1999/xlink" xml:space="preserve" xmlns:serif="http://www.serif.com/" style="fill-rule:evenodd;clip-rule:evenodd;stroke-linecap:round;stroke-linejoin:round;stroke-miterlimit:1.5;">
    <g transform="matrix(1,0,0,1,-456.702,-592.533)">
        <g id="homepage_details" transform="matrix(0.69229,0,0,0.69229,251.452,458.356)">
            <g transform="matrix(1,0,0,1,-85.6444,-379.917)">
                <g transform="matrix(1,0,0,1,64.1295,475.381)">
                    <path d="M933.698,260.929L850.56,308.929L822.847,356.929L767.606,388.822L545.719,260.929L933.698,260.929Z" style="fill:url(#_Linear1);stroke:black;stroke-width:5.16px;"/>
                </g>
                <path d="M610.467,1183.55L720.533,1120.95L443.405,960" style="fill:none;stroke:black;stroke-width:5.16px;"/>
                <g transform="matrix(1,0,0,1,55.5923,352.31)">
                    <g>
                        <path d="M775.959,640L775.959,512L554.256,384L554.256,512L775.959,640Z" style="fill:none;stroke:black;stroke-width:5.16px;"/>
                        <path d="M1274.79,352L775.959,640L775.959,512L831.384,480L859.097,432L1163.94,256L1219.36,256L1274.79,224" style="fill:none;stroke:black;stroke-width:5.16px;"/>
                    </g>
                    <g transform="matrix(1,0,0,1,9.2376,5.33333)">
                        <path d="M572.731,522.667L572.731,480L591.207,490.667L591.207,533.333" style="fill:none;stroke:black;stroke-width:5.16px;"/>
                    </g>
                    <g>
                        <path d="M665.108,512L609.682,544L609.682,608L720.533,672L775.959,640L775.959,576L665.108,512Z" style="fill:none;stroke:black;stroke-width:5.16px;"/>
                        <path d="M720.533,608L775.959,576L720.533,608Z" style="fill:none;stroke:black;stroke-width:5.16px;"/>
                        <path d="M609.682,544L720.533,608L720.533,672" style="fill:none;stroke:black;stroke-width:5.16px;"/>
                    </g>
                    <g>
                        <path d="M600.444,549.333L600.444,602.667" style="fill:none;stroke:black;stroke-width:5.16px;"/>
                        <path d="M600.444,592L591.207,597.333" style="fill:none;stroke:black;stroke-width:5.16px;"/>
                        <g transform="matrix(1,0,0,1,6.82121e-13,5.33333)">
                            <path d="M600.444,570.667L591.207,576" style="fill:none;stroke:black;stroke-width:5.16px;"/>
                        </g>
                        <g transform="matrix(1,0,0,1,0,10.6667)">
                            <path d="M600.444,549.333L591.207,554.667" style="fill:none;stroke:black;stroke-width:5.16px;"/>
                        </g>
                    </g>
                    <g>
                        <path d="M498.831,544L471.118,528L471.118,506.667L508.068,485.333L554.256,512L498.831,544Z" style="fill:none;stroke:black;stroke-width:5.16px;"/>
                        <path d="M498.831,544L498.831,522.667L554.256,490.667" style="fill:none;stroke:black;stroke-width:5.16px;"/>
                        <path d="M554.256,490.667L508.068,464L471.118,485.333L471.118,506.667L498.831,522.667" style="fill:none;stroke:black;stroke-width:5.16px;"/>
                        <g transform="matrix(1,0,0,1,1.70197e-13,128)">
                            <path d="M508.068,357.333L508.068,336" style="fill:none;stroke:black;stroke-width:4.58px;"/>
                        </g>
                    </g>
                </g>
                <path d="M831.736,992.203L886.81,1024L997.661,1024L1108.51,960L1330.21,832L1330.57,704.203L831.736,992.203Z" style="fill:url(#_Linear2);stroke:black;stroke-width:5.16px;"/>
                <g transform="matrix(1,0,0,1,0.78512,443.574)">
                    <g transform="matrix(0.759805,0.438674,-0.877347,0.506537,876.395,80.3653)">
                        <g opacity="0.2">
                            <g transform="matrix(1,0,0,1,-17.1487,-12.9632)">
                                <circle cx="515.979" cy="651.432" r="54.099" style="fill:none;stroke:black;stroke-width:20.42px;"/>
                                <circle cx="515.979" cy="651.432" r="54.099"/>
                            </g>
                            <path d="M498.831,736L498.831,672" style="fill:none;stroke:black;stroke-width:20.42px;"/>
                        </g>
                    </g>
                    <g transform="matrix(1.0807,0.623943,-1.24789,0.720467,878.541,-233.302)">
                        <g opacity="0.2">
                            <g transform="matrix(1,0,0,1,-17.1487,-12.9632)">
                                <circle cx="515.979" cy="651.432" r="54.099" style="fill:none;stroke:black;stroke-width:14.35px;"/>
                                <circle cx="515.979" cy="651.432" r="54.099"/>
                            </g>
                            <path d="M498.831,736L498.831,672" style="fill:none;stroke:black;stroke-width:14.35px;"/>
                        </g>
                    </g>
                    <g transform="matrix(0.54035,0.311972,-0.623943,0.360234,611.436,142.749)">
                        <g opacity="0.197549">
                            <g transform="matrix(1,0,0,1,-17.1487,-12.9632)">
                                <circle cx="515.979" cy="651.432" r="54.099" style="fill:none;stroke:black;stroke-width:28.71px;"/>
                                <circle cx="515.979" cy="651.432" r="54.099"/>
                            </g>
                            <path d="M498.831,736L498.831,672" style="fill:none;stroke:black;stroke-width:28.71px;"/>
                        </g>
                    </g>
                    <g transform="matrix(0.877347,0,0,0.877347,172.034,26.2725)">
                        <g transform="matrix(1,0,0,1,-17.1487,-12.9632)">
                            <circle cx="515.979" cy="651.432" r="54.099" style="fill:none;stroke:black;stroke-width:15.67px;"/>
                            <circle cx="515.979" cy="651.432" r="54.099" style="fill:rgb(0,207,156);"/>
                        </g>
                        <path d="M498.831,736L498.831,672" style="fill:none;stroke:black;stroke-width:15.67px;"/>
                    </g>
                    <g transform="matrix(0.623943,0,0,0.623943,110.728,100.984)">
                        <g transform="matrix(1,0,0,1,-17.1487,-12.9632)">
                            <circle cx="515.979" cy="651.432" r="54.099" style="fill:none;stroke:black;stroke-width:22.04px;"/>
                            <circle cx="515.979" cy="651.432" r="54.099" style="fill:rgb(0,207,156);"/>
                        </g>
                        <path d="M498.831,736L498.831,672" style="fill:none;stroke:black;stroke-width:22.04px;"/>
                    </g>
                    <g transform="matrix(1.24789,0,0,1.24789,-123.653,-310.444)">
                        <g transform="matrix(1,0,0,1,-17.1487,-12.9632)">
                            <circle cx="515.979" cy="651.432" r="54.099" style="fill:none;stroke:black;stroke-width:11.02px;"/>
                            <circle cx="515.979" cy="651.432" r="54.099" style="fill:rgb(0,207,156);"/>
                        </g>
                        <path d="M498.831,736L498.831,672" style="fill:none;stroke:black;stroke-width:11.02px;"/>
                    </g>
                </g>
            </g>
            <g transform="matrix(1,0,0,1,191.829,74.7243)">
                <g transform="matrix(1,0,0,1,-65.6282,98.7494)">
                    <g transform="matrix(1.44746,-0.835694,2.65019e-17,1.92995,-585.101,1.80336)">
                        <text x="942.236px" y="736px" style="font-family:'Barlow-SemiBold', 'Barlow';font-weight:600;font-size:71.148px;fill:none;stroke:black;stroke-width:6.25px;stroke-linecap:butt;stroke-miterlimit:1.41421;">BOO<tspan x="1073.79px 1112.49px 1155.04px 1201.14px 1250.94px " y="736px 736px 736px 736px 736px ">TCAMP</tspan></text>
                        <text x="942.236px" y="736px" style="font-family:'Barlow-SemiBold', 'Barlow';font-weight:600;font-size:71.148px;">BOO<tspan x="1073.79px 1112.49px 1155.04px 1201.14px 1250.94px " y="736px 736px 736px 736px 736px ">TCAMP</tspan></text>
                    </g>
                    <g transform="matrix(0.286304,-0.165298,6.93889e-17,0.381739,915.107,666.693)">
                        <g>
                            <g transform="matrix(1,0,0,1,-450,-250)">
                                <clipPath id="_clip3">
                                    <rect x="0" y="0" width="900" height="500"/>
                                </clipPath>
                                <g clip-path="url(#_clip3)">
                                    <g transform="matrix(1,0,0,1,-0.000709931,0.00019062)">
                                        <path d="M0,0L900,0L900,500L0,500L0,0ZM633.477,386.606L680.126,383.684C681.136,391.26 683.192,397.033 686.295,401.001C691.346,407.423 698.561,410.634 707.941,410.634C714.94,410.634 720.334,408.992 724.122,405.709C727.91,402.426 729.804,398.62 729.804,394.291C729.804,390.178 728,386.498 724.393,383.251C720.785,380.004 712.415,376.937 699.283,374.051C677.781,369.217 662.448,362.795 653.284,354.786C644.048,346.777 639.43,336.567 639.43,324.156C639.43,316.003 641.793,308.3 646.519,301.048C651.246,293.797 658.353,288.097 667.841,283.948C677.33,279.799 690.336,277.724 706.859,277.724C727.135,277.724 742.594,281.494 753.237,289.035C763.88,296.575 770.211,308.571 772.231,325.022L726.016,327.728C724.79,320.584 722.21,315.389 718.278,312.142C714.345,308.895 708.915,307.272 701.989,307.272C696.288,307.272 691.995,308.48 689.109,310.898C686.223,313.315 684.78,316.255 684.78,319.719C684.78,322.244 685.97,324.517 688.351,326.537C690.66,328.63 696.144,330.578 704.803,332.382C726.233,337 741.584,341.672 750.856,346.398C760.127,351.124 766.874,356.987 771.095,363.986C775.316,370.985 777.427,378.813 777.427,387.472C777.427,397.646 774.613,407.026 768.985,415.613C763.356,424.199 755.492,430.711 745.39,435.148C735.288,439.586 722.553,441.805 707.184,441.805C680.198,441.805 661.51,436.61 651.119,426.219C640.729,415.829 634.848,402.625 633.477,386.606ZM155.294,114.938L107.018,114.938L107.018,279.099L106.821,279.099L106.821,441.798L157.201,441.805L157.201,380.429L161.094,380.429C175.967,380.429 202.461,379.655 210.303,378.099C216.07,376.842 221.731,374.292 227.279,370.442C232.904,366.521 237.528,361.152 241.15,354.347C244.78,347.542 246.591,339.14 246.591,329.153C246.591,316.205 243.445,305.664 237.159,297.524C230.865,289.313 223.066,283.986 213.74,281.542C207.675,279.916 179.512,279.099 159.538,279.099L155.292,279.099L155.292,237.568L184.369,210.664L219.009,278.726L278.148,278.726L217.549,176.715L277.453,114.938L211.592,114.938L155.294,185.372L155.294,114.938ZM405.191,279.099L405.191,239.422L329.865,239.652L329.865,114.938L281.989,114.938L281.989,279.124L288.609,279.124L225.247,441.798L268.461,441.798L279.101,413.606L349.114,413.606L359.335,441.798L404.829,441.798L339.699,279.124L405.191,279.124L405.191,441.798L452.397,441.805L452.397,373.88L459.06,373.88C463.371,373.88 466.724,375.911 466.724,375.911C469.359,378.22 469.409,379.207 472.52,382.538C475.624,385.791 481.398,393.747 489.829,406.397L509.639,441.798L562.428,441.798L544.152,406.07C537.227,391.119 530.422,383.497 525.493,379.157C521.302,375.634 515.762,372.971 506.265,369.988C520.542,367.921 531.275,362.927 538.449,355.008C545.63,347.024 549.217,336.924 549.217,324.714C549.217,315.096 546.851,306.552 542.114,299.079C537.376,291.6 531.055,286.422 523.135,283.538C515.921,280.814 504.668,279.345 489.377,279.128L553.891,279.128L553.891,242.843L464.207,242.843L464.207,208.836L544.342,208.836L544.342,172.95L464.207,172.95L464.207,152.526L550.268,152.526L550.268,114.938L417.924,114.938L417.924,279.099L405.191,279.099ZM615.428,441.798L615.428,114.936L567.551,114.936L567.551,441.798L615.428,441.798ZM335.981,377.424L313.564,317.05L291.588,377.424L335.981,377.424ZM156.406,306.616L156.406,306.623L160.327,306.623C172.167,306.623 180.044,306.992 183.965,307.731C189.292,308.697 193.689,311.098 197.169,314.947C200.643,318.797 202.383,323.684 202.383,329.601C202.383,334.409 201.126,338.628 198.611,342.251C196.175,345.873 192.773,346.143 188.404,347.848C184.043,349.545 175.385,350.398 162.436,350.398L156.406,350.398L156.406,306.616ZM465.083,306.623C478.401,306.623 484.801,306.807 487.464,307.177C492.791,308.065 496.897,310.21 499.781,313.612C502.742,316.936 504.22,321.34 504.22,326.816C504.22,331.703 503.112,335.773 500.889,339.026C498.665,342.286 495.597,344.573 491.676,345.909C487.755,347.237 479.509,347.905 463.748,347.905L452.404,347.905L452.397,347.905L452.404,347.905L452.404,306.623L465.083,306.623ZM683.101,114.938L639.446,114.938L639.446,279.124L681.814,279.124L681.814,181.668L748.756,279.124L793.179,279.124L793.179,114.938L749.216,114.938L749.216,210.897L683.101,114.938ZM328.223,42.014C330.364,36.963 333.056,33.072 336.299,30.344C339.583,27.578 343.657,26.196 348.525,26.196C354.536,26.196 359.144,28.15 362.354,32.059C364.787,34.972 366.002,38.088 366.002,41.407C366.002,46.864 362.575,52.506 355.716,58.333C360.326,60.14 363.81,62.721 366.169,66.076C368.53,69.432 369.709,73.378 369.709,77.914C369.709,84.405 367.646,90.027 363.515,94.785C358.131,100.979 350.332,104.076 340.118,104.076C335.064,104.076 331.617,103.45 329.774,102.196C327.967,100.941 327.062,99.597 327.062,98.157C327.062,97.088 327.487,96.149 328.335,95.339C329.22,94.526 330.271,94.121 331.487,94.121C332.409,94.121 333.351,94.267 334.309,94.565C334.935,94.749 336.357,95.431 338.57,96.611C340.782,97.754 342.311,98.437 343.159,98.658C344.523,99.063 345.981,99.268 347.529,99.268C351.289,99.268 354.554,97.811 357.322,94.897C360.124,91.984 361.526,88.536 361.526,84.553C361.526,81.64 360.88,78.798 359.59,76.034C358.633,73.969 357.582,72.402 356.438,71.331C354.852,69.857 352.677,68.528 349.911,67.349C347.147,66.133 344.325,65.523 341.449,65.523L339.679,65.523L339.679,63.864C342.592,63.496 345.504,62.444 348.417,60.712C351.367,58.978 353.508,56.896 354.836,54.461C356.163,52.028 356.827,49.353 356.827,46.442C356.827,42.643 355.629,39.582 353.23,37.259C350.871,34.899 347.921,33.719 344.38,33.719C338.666,33.719 333.89,36.78 330.054,42.902L328.229,42.016L328.223,42.016L328.223,42.014ZM489.983,82.761L497.136,81.669C497.327,86.774 498.185,90.271 499.712,92.157C501.239,94.041 503.349,94.987 506.049,94.987C508.035,94.987 509.754,94.484 511.2,93.481C512.643,92.445 513.638,91.062 514.183,89.329C514.726,87.564 515.001,84.768 515.001,80.936L515.001,34.873L522.931,34.873L522.931,80.435C522.931,86.031 522.317,90.364 521.091,93.433C519.893,96.505 517.971,98.846 515.327,100.457C512.709,102.068 509.632,102.875 506.089,102.875C500.83,102.875 496.798,101.187 493.988,97.814C491.208,94.438 489.874,89.421 489.983,82.762L489.983,82.761ZM299.623,94.396L280.042,94.396C282.329,92.332 288.063,86.285 297.246,76.253C303.366,69.58 307.791,63.255 310.521,57.28C312.292,53.483 313.176,49.685 313.176,45.886C313.176,40.575 311.131,35.966 307.036,32.058C302.98,28.149 297.912,26.195 291.826,26.195C286.111,26.195 281.335,28.02 277.5,31.67C273.702,35.321 271.341,40.558 270.421,47.379L272.467,47.379C273.869,43.212 276.024,40.059 278.937,37.92C281.888,35.745 285.207,34.658 288.896,34.658C292.95,34.658 296.436,36.187 299.349,39.248C302.263,42.31 303.72,46.218 303.72,50.975C303.72,57.207 301.064,64.084 295.755,71.608C290.445,79.13 281.28,88.829 268.264,100.704L268.264,102.75L312.515,102.75L317.77,88.313L317.77,88.311L315.722,88.311C314.763,89.971 313.636,91.261 312.346,92.184C311.055,93.068 309.598,93.659 307.975,93.953C306.393,94.251 303.609,94.396 299.623,94.396ZM614.976,101.734L614.976,34.873L607.048,34.873L607.048,101.734L614.976,101.734ZM592.821,101.734L592.821,34.873L582.153,34.873L567.805,81.393C566.362,86.107 565.299,89.68 564.617,92.112C564.019,89.922 563.065,86.622 561.756,82.213L547.573,34.873L535.637,34.873L535.637,101.734L543.281,101.734L543.281,44.815L560.61,101.734L567.765,101.734L585.178,45.773L585.178,101.734L592.821,101.734ZM473.517,101.243L432.016,29.362L390.515,101.243L473.517,101.243Z"/>
                                    </g>
                                </g>
                            </g>
                        </g>
                    </g>
                    <g transform="matrix(1,0,0,1,231.671,-135.746)">
                        <g transform="matrix(1.38873,-0.801783,2.54265e-17,1.85164,-483.197,129.571)">
                            <text x="942.236px" y="736px" style="font-family:'Barlow-SemiBold', 'Barlow';font-weight:600;font-size:71.148px;fill:none;stroke:black;stroke-width:5.12px;stroke-linecap:butt;stroke-miterlimit:1.41421;">6</text>
                            <text x="979.873px" y="712.308px" style="font-family:'Barlow-SemiBold', 'Barlow';font-weight:600;font-size:41.479px;fill:none;stroke:black;stroke-width:5.12px;stroke-linecap:butt;stroke-miterlimit:1.41421;">TH</text>
                            <text x="942.236px" y="736px" style="font-family:'Barlow-SemiBold', 'Barlow';font-weight:600;font-size:71.148px;">6</text>
                            <text x="979.873px" y="712.308px" style="font-family:'Barlow-SemiBold', 'Barlow';font-weight:600;font-size:41.479px;">TH</text>
                        </g>
                        <g transform="matrix(0.906761,-0.523519,1.66021e-17,1.20901,-27.6107,420.047)">
                            <text x="942.236px" y="736px" style="font-family:'Barlow-SemiBold', 'Barlow';font-weight:600;font-size:71.148px;fill:none;stroke:black;stroke-width:7.84px;stroke-linecap:butt;stroke-miterlimit:1.41421;">EDITION</text>
                            <text x="942.236px" y="736px" style="font-family:'Barlow-SemiBold', 'Barlow';font-weight:600;font-size:71.148px;">EDITION</text>
                        </g>
                    </g>
                    <g transform="matrix(0.757984,-0.437622,1.38781e-17,1.01065,70.7865,583.774)">
                        <text x="942.236px" y="736px" style="font-family:'Barlow-Regular', 'Barlow';font-size:71.148px;fill:none;stroke:black;stroke-width:6.82px;stroke-linecap:butt;stroke-miterlimit:1.41421;">10.10.20<tspan x="1186.91px " y="736px ">1</tspan>8 - 12.10.20<tspan x="1547.42px " y="736px ">1</tspan>8</text>
                        <text x="942.236px" y="736px" style="font-family:'Barlow-Regular', 'Barlow';font-size:71.148px;">10.10.20<tspan x="1186.91px " y="736px ">1</tspan>8 - 12.10.20<tspan x="1547.42px " y="736px ">1</tspan>8</text>
                    </g>
                    <g transform="matrix(0.393281,-0.227061,7.20066e-18,0.524374,692.365,639.488)">
                        <text x="942.236px" y="736px" style="font-family:'Barlow-Regular', 'Barlow';font-size:71.148px;fill:none;stroke:black;stroke-width:13.15px;stroke-linecap:butt;stroke-miterlimit:1.41421;">HEIZH<tspan x="1136.33px 1179.09px " y="736px 736px ">AU</tspan>S LEIPZIG</text>
                        <text x="942.236px" y="736px" style="font-family:'Barlow-Regular', 'Barlow';font-size:71.148px;">HEIZH<tspan x="1136.33px 1179.09px " y="736px 736px ">AU</tspan>S LEIPZIG</text>
                    </g>
                </g>
                <g transform="matrix(1,0,0,1,-60.2533,101.275)">
                    <g transform="matrix(1.44746,-0.835694,2.65019e-17,1.92995,-585.101,1.80336)">
                        <text x="942.236px" y="736px" style="font-family:'Barlow-SemiBold', 'Barlow';font-weight:600;font-size:71.148px;fill:none;stroke:black;stroke-width:4.91px;stroke-linecap:butt;stroke-miterlimit:1.41421;">BOO<tspan x="1073.79px 1112.49px 1155.04px 1201.14px 1250.94px " y="736px 736px 736px 736px 736px ">TCAMP</tspan></text>
                        <text x="942.236px" y="736px" style="font-family:'Barlow-SemiBold', 'Barlow';font-weight:600;font-size:71.148px;fill:white;">BOO<tspan x="1073.79px 1112.49px 1155.04px 1201.14px 1250.94px " y="736px 736px 736px 736px 736px ">TCAMP</tspan></text>
                    </g>
                    <g transform="matrix(1,0,0,1,-108.149,24.195)">
                        <path d="M896.048,624L1136.23,496L1136.23,666.667L914.523,794.667L896.048,624Z" style="fill:none;stroke:black;stroke-width:3.44px;"/>
                        <path d="M896.048,624L1136.23,496L1136.23,666.667L914.523,794.667L896.048,624Z" style="fill:white;"/>
                    </g>
                    <g transform="matrix(0.286304,-0.165298,6.93889e-17,0.381739,915.107,666.693)">
                        <g transform="matrix(1,0,0,1,-450,-250)">
                            <clipPath id="_clip4">
                                <rect x="0" y="0" width="900" height="500"/>
                            </clipPath>
                            <g clip-path="url(#_clip4)">
                                <g transform="matrix(1,0,0,1,-0.000709931,0.00019062)">
                                    <path d="M0,0L900,0L900,500L0,500L0,0ZM633.477,386.606L680.126,383.684C681.136,391.26 683.192,397.033 686.295,401.001C691.346,407.423 698.561,410.634 707.941,410.634C714.94,410.634 720.334,408.992 724.122,405.709C727.91,402.426 729.804,398.62 729.804,394.291C729.804,390.178 728,386.498 724.393,383.251C720.785,380.004 712.415,376.937 699.283,374.051C677.781,369.217 662.448,362.795 653.284,354.786C644.048,346.777 639.43,336.567 639.43,324.156C639.43,316.003 641.793,308.3 646.519,301.048C651.246,293.797 658.353,288.097 667.841,283.948C677.33,279.799 690.336,277.724 706.859,277.724C727.135,277.724 742.594,281.494 753.237,289.035C763.88,296.575 770.211,308.571 772.231,325.022L726.016,327.728C724.79,320.584 722.21,315.389 718.278,312.142C714.345,308.895 708.915,307.272 701.989,307.272C696.288,307.272 691.995,308.48 689.109,310.898C686.223,313.315 684.78,316.255 684.78,319.719C684.78,322.244 685.97,324.517 688.351,326.537C690.66,328.63 696.144,330.578 704.803,332.382C726.233,337 741.584,341.672 750.856,346.398C760.127,351.124 766.874,356.987 771.095,363.986C775.316,370.985 777.427,378.813 777.427,387.472C777.427,397.646 774.613,407.026 768.985,415.613C763.356,424.199 755.492,430.711 745.39,435.148C735.288,439.586 722.553,441.805 707.184,441.805C680.198,441.805 661.51,436.61 651.119,426.219C640.729,415.829 634.848,402.625 633.477,386.606ZM155.294,114.938L107.018,114.938L107.018,279.099L106.821,279.099L106.821,441.798L157.201,441.805L157.201,380.429L161.094,380.429C175.967,380.429 202.461,379.655 210.303,378.099C216.07,376.842 221.731,374.292 227.279,370.442C232.904,366.521 237.528,361.152 241.15,354.347C244.78,347.542 246.591,339.14 246.591,329.153C246.591,316.205 243.445,305.664 237.159,297.524C230.865,289.313 223.066,283.986 213.74,281.542C207.675,279.916 179.512,279.099 159.538,279.099L155.292,279.099L155.292,237.568L184.369,210.664L219.009,278.726L278.148,278.726L217.549,176.715L277.453,114.938L211.592,114.938L155.294,185.372L155.294,114.938ZM405.191,279.099L405.191,239.422L329.865,239.652L329.865,114.938L281.989,114.938L281.989,279.124L288.609,279.124L225.247,441.798L268.461,441.798L279.101,413.606L349.114,413.606L359.335,441.798L404.829,441.798L339.699,279.124L405.191,279.124L405.191,441.798L452.397,441.805L452.397,373.88L459.06,373.88C463.371,373.88 466.724,375.911 466.724,375.911C469.359,378.22 469.409,379.207 472.52,382.538C475.624,385.791 481.398,393.747 489.829,406.397L509.639,441.798L562.428,441.798L544.152,406.07C537.227,391.119 530.422,383.497 525.493,379.157C521.302,375.634 515.762,372.971 506.265,369.988C520.542,367.921 531.275,362.927 538.449,355.008C545.63,347.024 549.217,336.924 549.217,324.714C549.217,315.096 546.851,306.552 542.114,299.079C537.376,291.6 531.055,286.422 523.135,283.538C515.921,280.814 504.668,279.345 489.377,279.128L553.891,279.128L553.891,242.843L464.207,242.843L464.207,208.836L544.342,208.836L544.342,172.95L464.207,172.95L464.207,152.526L550.268,152.526L550.268,114.938L417.924,114.938L417.924,279.099L405.191,279.099ZM615.428,441.798L615.428,114.936L567.551,114.936L567.551,441.798L615.428,441.798ZM335.981,377.424L313.564,317.05L291.588,377.424L335.981,377.424ZM156.406,306.616L156.406,306.623L160.327,306.623C172.167,306.623 180.044,306.992 183.965,307.731C189.292,308.697 193.689,311.098 197.169,314.947C200.643,318.797 202.383,323.684 202.383,329.601C202.383,334.409 201.126,338.628 198.611,342.251C196.175,345.873 192.773,346.143 188.404,347.848C184.043,349.545 175.385,350.398 162.436,350.398L156.406,350.398L156.406,306.616ZM465.083,306.623C478.401,306.623 484.801,306.807 487.464,307.177C492.791,308.065 496.897,310.21 499.781,313.612C502.742,316.936 504.22,321.34 504.22,326.816C504.22,331.703 503.112,335.773 500.889,339.026C498.665,342.286 495.597,344.573 491.676,345.909C487.755,347.237 479.509,347.905 463.748,347.905L452.404,347.905L452.397,347.905L452.404,347.905L452.404,306.623L465.083,306.623ZM683.101,114.938L639.446,114.938L639.446,279.124L681.814,279.124L681.814,181.668L748.756,279.124L793.179,279.124L793.179,114.938L749.216,114.938L749.216,210.897L683.101,114.938ZM328.223,42.014C330.364,36.963 333.056,33.072 336.299,30.344C339.583,27.578 343.657,26.196 348.525,26.196C354.536,26.196 359.144,28.15 362.354,32.059C364.787,34.972 366.002,38.088 366.002,41.407C366.002,46.864 362.575,52.506 355.716,58.333C360.326,60.14 363.81,62.721 366.169,66.076C368.53,69.432 369.709,73.378 369.709,77.914C369.709,84.405 367.646,90.027 363.515,94.785C358.131,100.979 350.332,104.076 340.118,104.076C335.064,104.076 331.617,103.45 329.774,102.196C327.967,100.941 327.062,99.597 327.062,98.157C327.062,97.088 327.487,96.149 328.335,95.339C329.22,94.526 330.271,94.121 331.487,94.121C332.409,94.121 333.351,94.267 334.309,94.565C334.935,94.749 336.357,95.431 338.57,96.611C340.782,97.754 342.311,98.437 343.159,98.658C344.523,99.063 345.981,99.268 347.529,99.268C351.289,99.268 354.554,97.811 357.322,94.897C360.124,91.984 361.526,88.536 361.526,84.553C361.526,81.64 360.88,78.798 359.59,76.034C358.633,73.969 357.582,72.402 356.438,71.331C354.852,69.857 352.677,68.528 349.911,67.349C347.147,66.133 344.325,65.523 341.449,65.523L339.679,65.523L339.679,63.864C342.592,63.496 345.504,62.444 348.417,60.712C351.367,58.978 353.508,56.896 354.836,54.461C356.163,52.028 356.827,49.353 356.827,46.442C356.827,42.643 355.629,39.582 353.23,37.259C350.871,34.899 347.921,33.719 344.38,33.719C338.666,33.719 333.89,36.78 330.054,42.902L328.229,42.016L328.223,42.016L328.223,42.014ZM489.983,82.761L497.136,81.669C497.327,86.774 498.185,90.271 499.712,92.157C501.239,94.041 503.349,94.987 506.049,94.987C508.035,94.987 509.754,94.484 511.2,93.481C512.643,92.445 513.638,91.062 514.183,89.329C514.726,87.564 515.001,84.768 515.001,80.936L515.001,34.873L522.931,34.873L522.931,80.435C522.931,86.031 522.317,90.364 521.091,93.433C519.893,96.505 517.971,98.846 515.327,100.457C512.709,102.068 509.632,102.875 506.089,102.875C500.83,102.875 496.798,101.187 493.988,97.814C491.208,94.438 489.874,89.421 489.983,82.762L489.983,82.761ZM299.623,94.396L280.042,94.396C282.329,92.332 288.063,86.285 297.246,76.253C303.366,69.58 307.791,63.255 310.521,57.28C312.292,53.483 313.176,49.685 313.176,45.886C313.176,40.575 311.131,35.966 307.036,32.058C302.98,28.149 297.912,26.195 291.826,26.195C286.111,26.195 281.335,28.02 277.5,31.67C273.702,35.321 271.341,40.558 270.421,47.379L272.467,47.379C273.869,43.212 276.024,40.059 278.937,37.92C281.888,35.745 285.207,34.658 288.896,34.658C292.95,34.658 296.436,36.187 299.349,39.248C302.263,42.31 303.72,46.218 303.72,50.975C303.72,57.207 301.064,64.084 295.755,71.608C290.445,79.13 281.28,88.829 268.264,100.704L268.264,102.75L312.515,102.75L317.77,88.313L317.77,88.311L315.722,88.311C314.763,89.971 313.636,91.261 312.346,92.184C311.055,93.068 309.598,93.659 307.975,93.953C306.393,94.251 303.609,94.396 299.623,94.396ZM614.976,101.734L614.976,34.873L607.048,34.873L607.048,101.734L614.976,101.734ZM592.821,101.734L592.821,34.873L582.153,34.873L567.805,81.393C566.362,86.107 565.299,89.68 564.617,92.112C564.019,89.922 563.065,86.622 561.756,82.213L547.573,34.873L535.637,34.873L535.637,101.734L543.281,101.734L543.281,44.815L560.61,101.734L567.765,101.734L585.178,45.773L585.178,101.734L592.821,101.734ZM473.517,101.243L432.016,29.362L390.515,101.243L473.517,101.243Z"/>
                                </g>
                            </g>
                        </g>
                    </g>
                    <g transform="matrix(1,0,0,1,231.671,-135.746)">
                        <g transform="matrix(1.38873,-0.801783,2.54265e-17,1.85164,-484.1,129.049)">
                            <text x="942.236px" y="736px" style="font-family:'Barlow-SemiBold', 'Barlow';font-weight:600;font-size:71.148px;fill:none;stroke:black;stroke-width:3.72px;stroke-linecap:butt;stroke-miterlimit:1.41421;">6</text>
                            <text x="979.873px" y="712.308px" style="font-family:'Barlow-SemiBold', 'Barlow';font-weight:600;font-size:41.479px;fill:none;stroke:black;stroke-width:3.72px;stroke-linecap:butt;stroke-miterlimit:1.41421;">TH</text>
                            <text x="942.236px" y="736px" style="font-family:'Barlow-SemiBold', 'Barlow';font-weight:600;font-size:71.148px;fill:white;">6</text>
                            <text x="979.873px" y="712.308px" style="font-family:'Barlow-SemiBold', 'Barlow';font-weight:600;font-size:41.479px;fill:white;">TH</text>
                        </g>
                        <g transform="matrix(0.906761,-0.523519,1.66021e-17,1.20901,-29.6423,418.874)">
                            <text x="942.236px" y="736px" style="font-family:'Barlow-SemiBold', 'Barlow';font-weight:600;font-size:71.148px;fill:none;stroke:black;stroke-width:5.7px;stroke-linecap:butt;stroke-miterlimit:1.41421;">EDITION</text>
                            <text x="942.236px" y="736px" style="font-family:'Barlow-SemiBold', 'Barlow';font-weight:600;font-size:71.148px;fill:white;">EDITION</text>
                        </g>
                    </g>
                    <g transform="matrix(0.757984,-0.437622,1.38781e-17,1.01065,67.718,582.002)">
                        <text x="942.236px" y="736px" style="font-family:'Barlow-Regular', 'Barlow';font-size:71.148px;fill:none;stroke:black;stroke-width:5.97px;stroke-linecap:butt;stroke-miterlimit:1.41421;">10.10.20<tspan x="1186.91px " y="736px ">1</tspan>8 - 12.10.20<tspan x="1547.42px " y="736px ">1</tspan>8</text>
                        <text x="942.236px" y="736px" style="font-family:'Barlow-Regular', 'Barlow';font-size:71.148px;fill:white;">10.10.20<tspan x="1186.91px " y="736px ">1</tspan>8 - 12.10.20<tspan x="1547.42px " y="736px ">1</tspan>8</text>
                    </g>
                    <g transform="matrix(0.393281,-0.227061,7.20066e-18,0.524374,688.831,636.477)">
                        <text x="942.236px" y="736px" style="font-family:'Barlow-Regular', 'Barlow';font-size:71.148px;fill:none;stroke:black;stroke-width:6.57px;stroke-linecap:butt;stroke-miterlimit:1.41421;">HEIZH<tspan x="1136.33px 1179.09px " y="736px 736px ">AU</tspan>S LEIPZIG</text>
                        <text x="942.236px" y="736px" style="font-family:'Barlow-Regular', 'Barlow';font-size:71.148px;fill:white;">HEIZH<tspan x="1136.33px 1179.09px " y="736px 736px ">AU</tspan>S LEIPZIG</text>
                    </g>
                </g>
            </g>
        </g>
    </g>
    <defs>
        <linearGradient id="_Linear1" x1="0" y1="0" x2="1" y2="0" gradientUnits="userSpaceOnUse" gradientTransform="matrix(39.5306,-172.318,172.318,39.5306,1215.08,471.971)"><stop offset="0" style="stop-color:rgb(255,50,117);stop-opacity:1"/><stop offset="1" style="stop-color:rgb(109,38,255);stop-opacity:1"/></linearGradient>
        <linearGradient id="_Linear2" x1="0" y1="0" x2="1" y2="0" gradientUnits="userSpaceOnUse" gradientTransform="matrix(2.32922e-13,245.333,-245.333,2.32922e-13,1126.99,885.333)"><stop offset="0" style="stop-color:rgb(0,207,156);stop-opacity:1"/><stop offset="1" style="stop-color:rgb(109,38,255);stop-opacity:1"/></linearGradient>
    </defs>
</svg>
